# xmcd CD database file
#
# Track frame offsets:
#	150
#	4900
#	31505
#	52382
#	67977
#	85779
#	97582
#	108510
#	132617
#	165212
#	183277
#	196747
#	210482
#	228815
#	243552
#	265355
#
# Disc length: 3853 seconds
#
# Revision: 0
# Processed by: cddbd v1.5.2PL0 Copyright (c) Steve Scherf et al.
# Submitted via: CDex 1.51
#
DISCID=c70f0b10
DTITLE=Black Dynamites - Live at the Locomotion
DYEAR=1998
DGENRE=Country
TTITLE0=Introduction
TTITLE1=Black eyes rock
TTITLE2=Mean woman blues
TTITLE3=1000 kiles away from home
TTITLE4=Too much monkey business
TTITLE5=The black dynamites performance
TTITLE6=Flamingo
TTITLE7=My prayer
TTITLE8=Caravan drum show
TTITLE9=Uncle satchmo's lullaby
TTITLE10=La rosita
TTITLE11=Giddy up a ding dong
TTITLE12=I want to love you
TTITLE13=Johnny B. Goode
TTITLE14=Danny Boy
TTITLE15=Ole sio
EXTD=YEAR: 1998
EXTT0=
EXTT1=
EXTT2=
EXTT3=
EXTT4=
EXTT5=
EXTT6=
EXTT7=
EXTT8=
EXTT9=
EXTT10=
EXTT11=
EXTT12=
EXTT13=
EXTT14=
EXTT15=
PLAYORDER=
